<svg class="pw-home-logo" xmlns="http://www.w3.org/2000/svg" id="Layer_6" viewBox="0 0 815.5 323.9">
  <style>
    .st0{fill:none;} .shape1{fill:#000;stroke:#000;stroke-miterlimit:10;} .shape2{fill:#000;}
  </style>
  <g id="XMLID_188_">
    <path id="XMLID_259_" d="M485.2 215.3s141 135.7 283 66.7c0 0 33.2-18.1 37.2-23.6" class="st0"/>
    <path id="XMLID_225_" d="M514.8 232.4l-.8.3.1.4c-.4.1-.7.2-1.1.2l-.5.5-.6-.4-.4.2c-.1.1-.5 0-1.1 0l-.2-.3c-.3.1-.8-.1-1.5-.5l-.1-.4-.3.3-.6-1.3c-.1 0-.3-.1-.7 0v-.3l-1.2-1.2-.9-.5-.1-.6-1-.6-.1-.7c-.4-.1-.7-.2-.8-.3-.2-.2-.4-.4-.5-.7-.3 0-.4.1-.6.3 0 0-.1.2-.2.5s-.2.5-.3.6c-.1.2-.4.4-.9.7l-.3.7-.7.1c-.4.7-.8 1.3-1.2 1.8l-1.1 1.1-1 1.6-1.1.1-.4 1-1 .8.3.4-.4.5c-.2-.1-.5-.1-.7.2 0 .1-.1.2-.2.5l.1.1c-.6.2-.9.4-1 .5l-2.8 3.4c-.4.5-.7.6-.9.5-.1-.1-.3-.2-.5-.6l.7-.8 1.2-2 .9-.4 1.1-1.2.9-1.7c.3 0 .6 0 .7-.2.1-.1.2-.5.5-1.2l.7-.3.4-1.2.9-.5.5-.9.6.1c-.3-.4-.4-.8-.1-1.2.2-.2.7-.6 1.6-1.3l.1-.7.7-.6v-.3l.4-.1 1.1-1.7 1.9-1.9.1-.7.8.2-.3-.3.1-.6-.2-.3h.3l-.1.2.3-.1v-.3l.4.5v-.4l.2.2.2-.2c-.1-.3-.2-.4-.1-.5.2-.2.3-.4.6-.5l.2-.6c-.1-.2-.2-.3-.1-.4 0-.1.1 0 .3.1l.1.1.1-.1.3.2v-.6l.6-.5.4-.5.3-.3.4-.8.8-.6.3-.7.8-.6.1-.4.6-.7.3-.5.6-.6c0-.3.1-.7.5-1.2l-.4-.3-.2-.5h-1.1l.1-.1-.4-.1-.6-.5-.3.2-.5-.4-.7.1-.4-.5-.9.4-.4-.7-.4.2c-.3-.8-.4-1.3-.1-1.6.1-.1.2-.1.4-.1s.4 0 .5-.1c.1-.1.1-.3.2-.5.7.2 1.3.4 1.8.8l.1.2.7-.1c.2 0 .7.1 1.6.3v.2l.7-.1.9.8.9.3.1.2.9-.8.4.3c-.2.8-.1 1.4.1 2l.4-.2.1.5h.3c.4.4.8.9 1 1.3.2.5.4.8.7 1.1s.4.6.4.9h.4l-.2.4.3.7.1-.1.3.4v.7c0 .2 0 .5.1.7l.4 1-.1.3.4.6-.1.1c.2.5.2.9 0 1.2l.3.7-.3 1 .2.2-.3.4.1.5c0 .1-.1.4-.3.9l.3.3c-.4.6-.5 1.1-.3 1.6l-.4.6v.7l-.5.5s-.1.2-.2.7c-.1.4-.3.8-.5 1.2l-.3-.1-.2.4-.3.3.2.2-1 .6-.4.8zm-.1-2.2l.2-.4.2-.2.4-1 .5-.3.2-.8.4-.6.2-1 .3-.7.3-2-.1-.7.4-1.2-.4-.7.1-1.3.1-.2-.4-.5-.5-.3v-1.2l-.4-.1.1-.6-.5-.6-.5-.4v-.2l-.4-.1v-.4l-.4-.1.1-.4-.5-.2-1.2-1.3c-.4-.1-.7 0-.8.3 0 .1-.1.1-.1.3 0 .1-.2.4-.5.8l-.9.8-.4 1.2.1.6-.9.5-.5.8-1.5 1.4-.1.5-.6.4v.8h-.3l-.4.6.2.5-.7.1-.1.6-.9.2-.5 1-.6.7-.4.9 1.7 1.2-.1.3c.4-.1.6-.1.6-.1s0 .3.1.8c.1.1.2.1.4.2s.3.1.3.1c.2.1.4.4.6.7.2-.1.4-.1.5 0 .1.1.1.2 0 .3l.7.5.5.5.9.3-.1.2c1.1.7 1.9 1 2.2 1l.1.1c.2.2.4.1.6-.1l.2.4.4-.5.4.2.4-.4.2-.5h.5l.1-.3.5-.4z" class="shape1"/>
    <path id="XMLID_228_" d="M533.8 251.8l-.9-.1-.4.3c-.3-.1-.6-.2-.9-.2l-.1-.3-.4-.1-.1-1.3.7-1-.1-.5 1-1.3 1.7-3.1.8-.8v-.7h.6v-.6l.4-.4h.3l.3-.6.2.2.6-.9.4-.4c-.1-.1-.1-.3-.1-.7l-.9-.1c-.4.2-.8.4-1.1.3l-.4.5-.7-.1-.5.6h-.5l-.2.3c-.4 0-.8.1-1.2.4h-.4l-1.5.8-1.8.4-.8.4-1.6.4-.6.4h-1.9l-2.7.4-.6-.2c-.2-.1-.5-.1-1 0l-.1-.1c-.3-.2-.3-.6-.1-1.1-.8-1.2-1-2.3-.5-3.1h.5c.2-.7.5-1.4.8-2l-.1-.3.3-.1c.1 0 .3-.2.4-.4s.4-.5.7-.8l1.5-1.5c0-.1.1-.2.2-.3.1-.2.3-.3.5-.4.1-.3.2-.4.2-.5.1-.1.2-.3.4-.4l.2.1c.5-.2.8-.4 1-.6.1-.1.1-.3.1-.5v-.3c.1-.1.2-.1.4-.1-.2-.2-.2-.4-.1-.5.1-.1.3-.1.6.1l.1-.1c.2-.3.5-.6.9-.7.4-.1.6-.3.7-.4l-.3-.3 1.2-.6.2-.2c.4-.6 1-1 1.7-1.2l.5-.9h.3c0-.2 0-.4.1-.6.1-.1.2-.1.4.1l.5-.7c.2.1.3 0 .4-.1s.1-.2.1-.3c.2-.1.6-.2 1.1-.3.6-.1 1-.3 1.2-.5l.1.1c.3.2.6.3.7.1v-.3c.6.4 1 .5 1.2.3l1.1.1 2.2 1.8-.1.2 1.6 1.7.2.1c.3.2.3.4.2.7l.3.1c-.1.3 0 .6.2.7l.3.1.1.7.8.9-.3.4c.6 0 1.3.1 2.1.4l-.5.7-.2-.2.3.5h-.1l-.4 1.4-.7.2-.7.6c-.2.2-.6.4-1.1.6l-.1.8c-.1 0-.2.1-.5.2s-.6.4-.9.9c.1.1.1.2 0 .3l-.3.3-.2.3-.5.4-.2.5-.5.1-.5 1.1h-.2v.3h-.2s0 .1-.1.2-.2.2-.4.3l-.1.4-.5.3c-.2 0-.4.2-.6.5l-.2.7-.8.3c-.1.4-.1.7 0 .9-.4.2-1 .6-1.7 1.4l.3.3-.2.2c0 .1-.1.2-.2.3-.2.2-.5.5-1 .7l.3.2-.3.8.9.7-.1.8c-.1 0-.2 0-.2.1-.1.1 0 .4.1.7h-.1c-.1.1-.1.4.1.7zm8.7-17.9l.3-1-.6-.7-.5-2c-.1-.2-.2-.4-.3-.5-.1-.1-.2-.1-.4-.2l-.1-.4-.7-.5v-.4l-.6-.1-.1-.4-.5-.1-.6-.6c-.3-.2-1-.4-1.9-.6v.2l-.5-.1-.2.1-.6-.3-.2.3c-.4 0-1.1.2-2 .7-.9.8-1.7 1.3-2.4 1.8l.2.4-.9.1-.1.5c-.5.2-1 .6-1.3 1.1l-.2.2-.7.3-.5.8c-.4.1-.7.3-1 .6l-.3.1-.6.8-.3.1c-.2.3-.5.7-1 1.1l-.1.7c-.2-.1-.6 0-1 .1l-.1.5-.5.2-.3 1.2-.8.3-.7 1.1-.5.4.1.3-.1.4c.2.3.3.6.3.9l1.2.5c.5-.3 1-.3 1.5 0l.1-.4c.5.2.8.3.9.3 0 0 .1-.1.3-.2.2-.1.4-.2.7-.2l.1.1c.1.1.2 0 .3-.1l1.5-.4-.2-.1.8-.1c.3-.1.6 0 1 .1l.9-.6c.7.1 1.3 0 1.6-.3l.3.2.8-.3.2-.4.5.2c0-.1 0-.2.1-.3 0 0 .2-.1.7-.3.4-.1.7-.3 1-.4l.1.2c.3-.3.6-.5 1-.5.2-.2.5-.3.7-.3h.5l.3.2.4-.5c.1 0 .2-.1.2-.1.1-.1.1-.2 0-.4.6-.3 1-.4 1.2-.4l.4-.4h.5l.2-.5c.4-.2.7-.4.9-.6l.7-.1.9-1.3z" class="shape1"/>
    <path id="XMLID_232_" d="M555.7 241.6l3.2 2.1 3.2 1.7.7.5.4.1 1.7 1c.3.2.4.4.2.7-.2.3-.6.4-1.1.2l-.3-.3c-.2-.1-.5-.2-.7-.1l-.6-.5-1.3-.7c-.8 0-1.5-.2-2-.5l-.8-.7-.7.2-.4-.3.2-.3-1-.1-.4-.2-.4.3c-.2-.2-.6-.6-1.3-1-.2.2-.3.2-.4.1-.1 0-.1-.2-.2-.3l-.7-.3-.7.2-1.5 2.2-.7 1.4-1.2 1.7-1.1 2-.4 1-.5.9-.1 1.5-.1.2c-.3.5-.3 1.2 0 2.1l-.1.5.7.7.2 1 1.6 1.4 2.6.8.5.6 2.1.2.6.5c.1.3.1.6 0 .8-.1.2-.5.4-1 .4l-.3-.3-1.1.2-1.7-.7h-.7l-.4-.6c-.7 0-1.3-.2-1.9-.6l-.8-.7-.5-.3-1.1-2-.1-1.6-.2-1 .5-2.8.9-2.4.7-.7-.1-.7.5-.4.3-1 .7-.1v-.6l.4-.5.2-.7.6-.8.2-.5h.3l1-1.7c.2-.5.1-.8 0-.9-.1-.1-.2-.1-.4 0l-.4-.5-.9-.2-.4-1-.4-.2c-.4-.2-.4-.5-.2-1l.5-.7-.2-.4.4-.3.6.5.6.2.6.7 2 1.2.7-1 .6-1.1.2-1 .5-.1c.2-.1.3-.2.3-.3.1-.2.1-.4-.1-.7l1.2-1.8-.1-.8.3-.4c-.3-.2-.4-.5-.2-.6l1.1-1.1c.5-.2.7-.3.8-.4.7 1 1 1.6.9 1.6l-.5.4c0 .6-.1 1-.3 1.2l-.1.1c-.2.2-.4.4-.5.6-.1.2-.1.3-.1.5l-.3.4-.3.5-.8.4-.4 1.3-1 1.3v.4l-.5.3-.3 1.4.9.5.6-.2z" class="shape1"/>
    <path id="XMLID_234_" d="M577.9 276.4c0 .2-.1.4-.3.6-.4.8-.9 1-1.6.6-.5-.2-.6-.8-.4-1.7l.4-1.7.2-.5c.1-.2.3-.5.5-.8.2-.4.2-.9.1-1.5l.7-.6.4-1.3.5-.5.4-.8.5-.6.2-.9.4-.3.9-1.8 1.2-2.3.4-1.7.5-.6.5-2.1.3-.6-.6-.7-1.3.4c-.2 0-.4.1-.6.1l-1-.1-2.3 1.3-.6-.1-2.2 1.4-.1.2-.3-.2-.4.4-.8.2c-.3.1-.6.4-.9.7l-1.4 1.5-1.2.6c-.2.1-.4.3-.7.7l-.7.2-.8 1.2-1.5.5-.8 1.3-.2-.1-.8.8-1.5 1c-1 .4-1.6.7-1.8.9l-.2-.2-.3-.2v-.3l.4-1.9 1.3-2.8.2-.9.6-.9.8-1.7h.3l2.4-4 .5-.7.3-.6h.3v-.4l1.1-1.6.6-.6.2-.8.3-.3v-.4l1-1.6-.1-.4.3-.3.9-1.9.1-1 .3.2.2-.4.5-2.2.5-1v-.6l.5-1.7c.2-.8.2-1.6.2-2.4l.9-.5v-.2c.4.2.5.5.3.9l.4 1-.1.7c0 .2 0 .6.2 1.1l-.3.4-.1 1-.5.3.3.6-.7 1.3-1.2 2.5-.3 1.4-.5.4-.4 1-.6.7-.5 1.3-.9 1.1v.4l-1.6 3-.1.5-.3.1-1.1 1.7-.5.4-.1.7-.2.2-.9 1.6-1.2 1.2c.1.6.2 1 .1 1.1l-.7.5c0 .4-.1.8-.3 1.3l.6-.1.5-.5 1.6-1.2.9-1c.6.1 1-.1 1.3-.6.1 0 .6-.3 1.3-.8l.5-.5c.2-.2.5-.4.9-.6l.4-.6-.1-.2.5-.1v.2l1.3-.6c.3 0 .5-.1.7-.4l.1-.2c.5.2.8 0 1.1-.6h.2l.1-.2.5.1.4-.6.3.2.1-.4.3.2.2-.3c.3 0 .5-.1.5 0v.2l.3-.4.1.1c.4.2.7 0 1-.7l.8-.2v.2c.4-.2.7-.4.9-.8h.4l.3-.3.4.1c.2-.1.4 0 .7 0s.4.1.4.1v-.2c.9 0 1.4 0 1.5.1.2.1.4.5.5 1 .2.2.3.4.1.6l.3.6c-.1.2-.1.9 0 2.1l-1.9 3.9-1.1 2v.6l-1.8 3.6-.4.6-.6 1.2-.4 1.1-.8 1.1c.1.2-.1.7-.4 1.6l.2.8-.3.6z" class="shape1"/>
    <path id="XMLID_239_" d="M624.6 270.5l-.4.7-.1.5-1.6 2.4-1 .6-.7 1.1-.8.6-1.6 1.8-1.6 1.4-2.4 1.9-.6.7-1.4 1.2-1.6 1.7-2.7 2.5c-.6.9-1 1.4-1.2 1.5-.4-.3-.7-.6-.9-.9l.2-2.7-.3-2.1.2-.5v-2.1l-.2-.5-.3-4.7-.4-3.5c0-.1-.1-.2-.3-.2-.2-.1-.3-.1-.5-.1l-1.6 1.3-1.2.4-1.9 1.4-1.3.8-1 1.3-1.8 1.2-.3.6c-1 1-1.5 1.5-1.5 1.6l-.3.7-.6.5-1.1 1.3v.2c-.1-.1-.1-.1-.3-.2h-.8c0-.2-.2-.3-.4-.5l.1-.3-.2-.7.3-1.5-.1-1 .2-.7.1-.4.2-2.6.4-1.9-.2-.5.2-.5v-1.6l.2-.5v-1.7l-.3-1.2.5-1 .1-.5v-1.7l.1-.7c0-.2 0-.6-.1-1-.1-.5-.1-.8 0-1.1.1-.2.1-.3.2-.4l-.3-.3-.1-1.9h.8c.1-.3.3-.4.4-.4l.8.1.1.6.5.2-.1 1 .2.3-.3.5v.6l-.4.5.2 1.2-.4.7-.3 2.7-.3.6-.3 1.9v2l-.5 2.5.3.8-.4 1.1c-.1 1.1-.2 1.9-.3 2.3l.4.6v.8l.5.2 4-3.4c.3.1.5-.2.7-.8.5-.1.8-.3.9-.6.1-.4.4-.7.7-1 .3-.1.5-.3.5-.5.2.3.4.4.6.5 0-.3 0-.5.1-.7.1-.3.3-.4.6-.3l.1.1h.1v-.2c0-.1.2-.2.4-.3l.1-.5.1-.3c.1-.1.2-.2.3-.2.1 0 .1.1 0 .3.3-.1.5-.1.6-.1.1 0 .2.1.2.1l.2-.7.5-.3.1-.8.2.2.2-.3h.5l-.1-.3.3-.1.1-.2.6.2c-.3-.7-.3-1.3-.1-1.8.1-.3.3-.6.7-1l.9.2c.2.4.4.9.5 1.5l-.2 1.2c0 .1 0 .5.1 1.1l-.3.5.3 1-.2.7.3 2-.2.5.2.5v2.5l-.2.9.3 1 .2 4.3.9.5 2.9-2.9.8-.3.8-1 .8-.1.3-.9c.9-.2 1.4-.5 1.6-1l.3-.8.3.1.1-.3.5-.2 1.5-1.4c.2-.4.7-.9 1.4-1.4l.1-.5 1.1-.8 1.2-1.4c.1-1.4.2-2.5.5-3.2.2-.5.4-.8.8-.7l.4.4c0 .2.2.3.6.6l-.1.6.4.8z" class="shape1"/>
    <path id="XMLID_241_" d="M642.1 297.2l-.8.2-.3.4c-.3 0-.6 0-.9.1l-.2-.2-.4.1-.6-1.2.3-1.2-.3-.4.5-1.6.5-3.5.5-1.1-.2-.7.5-.2-.2-.5.2-.5.3-.2.1-.7.3.1.2-1.1.2-.5c-.1-.1-.3-.3-.4-.6l-.9.2c-.3.4-.6.6-.9.7l-.2.6-.7.1-.3.7-.4.2-.1.4c-.4.2-.7.4-1 .8l-.4.2-1.1 1.3-1.6 1-.6.6-1.4.9-.4.6-1.8.7-2.2 1.6h-.6c-.2 0-.5.1-.9.4h-.2c-.3-.1-.5-.4-.5-1-1.2-.8-1.8-1.7-1.6-2.7l.5-.2c-.1-.7-.1-1.5.1-2.2l-.2-.3.2-.2c.1-.1.2-.3.3-.5.1-.2.2-.6.4-1l.8-1.9v-.4c0-.2.1-.4.3-.6v-.6c0-.1.1-.3.2-.5h.2c.4-.3.6-.6.7-.9 0-.2 0-.3-.1-.5-.1-.1-.1-.2-.1-.2 0-.1.1-.2.3-.2-.3-.1-.4-.3-.3-.4 0-.2.2-.2.6-.1v-.1c.1-.4.3-.7.6-1s.5-.5.5-.6l-.3-.2 1-1 .1-.3c.2-.8.6-1.3 1.2-1.8l.2-1 .3-.1c-.1-.2-.1-.4-.1-.6 0-.1.1-.1.4-.1l.2-.9c.2 0 .3-.1.3-.2v-.3c.1-.1.5-.4.9-.7.5-.3.8-.6 1-.9h.2c.4.1.6 0 .7-.2 0-.1 0-.2-.1-.3.7.2 1.1.1 1.2-.2l1.1-.3 2.7.9v.2l2.1 1h.2c.3.1.5.3.4.6h.3c0 .3.2.5.5.6h.3l.4.6 1.1.5-.1.5c.6-.2 1.3-.4 2.1-.4l-.2.9-.3-.1.5.4-.1.1.1 1.5-.6.4-.4.8c-.1.3-.4.6-.7 1l.2.8s-.2.2-.4.3c-.2.2-.4.6-.5 1.1.1.1.1.2.1.3l-.2.4v.4l-.3.5v.5l-.4.3-.2 1.2-.2.1.1.3-.2.1v.2c0 .2-.1.3-.3.4l.1.4-.4.4c-.2.1-.3.3-.4.7l.1.7-.6.5c.1.4.2.7.3.8-.3.3-.7.9-1.1 1.9l.4.2-.1.3v.4c-.1.3-.3.6-.6 1l.3.1v.8l1 .4.2.8c-.1 0-.2.1-.2.1 0 .1.1.4.4.6h-.2c-.3.5-.2.7 0 1zm1.7-19.9l-.1-1-.8-.5-1.2-1.7c-.2-.2-.4-.3-.5-.3h-.4l-.2-.3-.9-.2-.2-.4-.7.1-.2-.3h-.5l-.8-.3c-.4-.1-1.1 0-2 .2l.1.2h-.5l-.2.2-.6-.1-.1.3c-.4.1-.9.6-1.6 1.4-.5 1-1.1 1.9-1.6 2.5l.4.3-.8.4.1.5c-.4.4-.7.9-.8 1.5l-.1.3-.5.5-.2.9c-.4.3-.6.5-.7.9l-.3.2-.2 1-.2.2c-.1.3-.3.8-.5 1.4l.1.7c-.2 0-.5.2-.9.5l.1.5-.4.3.2 1.2-.6.5-.2 1.3-.3.6.2.2v.4c.3.2.5.4.6.8h1.3c.3-.5.8-.7 1.4-.6v-.4h.9s.1-.1.2-.3c.1-.2.3-.3.6-.4h.1c.1 0 .2 0 .2-.2l1.2-.9h-.2l.7-.4c.2-.1.6-.2 1-.3l.6-.9c.7-.1 1.2-.4 1.4-.9l.3.1.7-.6v-.5h.5c0-.1-.1-.2 0-.3 0-.1.2-.2.5-.5s.6-.5.8-.7l.2.2c.1-.4.4-.7.8-.8.1-.3.3-.5.6-.6s.4-.2.5-.1l.4.1.2-.6.2-.2c0-.1 0-.2-.1-.4.4-.5.8-.7 1-.8l.2-.6.4-.2v-.5c.3-.3.5-.6.6-.9l.6-.4.2-1.3z" class="shape1"/>
    <path id="XMLID_248_" d="M664.9 294.1c.2.2.3.4.3.5-.1.4-.2.7-.4.7-.5.6-1 .9-1.4.9 0 .2-.7.7-2 1.6-.4 0-.6.1-.7.2-.1.1-.4.3-.8.6-.5 0-.9.1-1.1.5l-.6.1-.2-.1-.2.4h-.2c-.3 0-.7 0-1.2.2s-.9.2-1 .3l-.6.1h-.4l-.3-.5-.5-.5c-.1-.6-.4-1.1-.6-1.5v-1.3l.1-.6-.2-.4.2-1.6.1-1.4.1-.7c.1-.1.2-.3.2-.4 0-.2-.1-.6-.3-1 .3-1.5.5-2.3.5-2.5 0-.3-.1-.7-.3-1l.5-.2.4-2.1v-.9l.5-.9-.2-1.1c.3-.4.6-.8.6-1.4l.2-1.8.2-.4.3-2.7.5-2.6c-.2-.7-.2-1.4 0-2.1l.4-1.6-.1-.6.6-2.4c.2 0 .4-.1.7-.2s.4-.1.4-.1.1 0 .2.1l.2.9.5.5-.5.5v.2c0 .2 0 .4.1.7-.1.6-.3.9-.5.9l.1.3c-.1 1.1-.1 1.9 0 2.3l-.6 1.4.3.5c-.5.7-.8 1.3-.9 2 0 .4.1.6.4.7l-.5 1c.1.4.1.6.1.7 0 .2-.1.4-.3.7v.7l-.5 1.7-.1.8c0 .2-.3.8-.7 1.7l.1 1.2-.4 2.1-.3.2.3.7-.4 1-.4 1.6.2.4-.2.1c.2.3.3.8.2 1.3 0 .1-.1.3-.3.6l.2.6-.2.8.2.6-.2.4.4 1.9.6.3c.7-.2 1.1-.4 1.3-.3l.3.1.8-.5c.1-.1.3-.1.7-.2.2-.3.5-.4 1-.4l.3-.3.4.1.1-.3.6-.1.6-.3.6-.1s.2-.2.6-.4c.3-.3.7-.5.9-.6 0-.2.2-.3.4-.4 0 .1.1.1.2.1.1.2.3.1.6 0z" class="shape1"/>
    <path id="XMLID_250_" d="M701 297.8l-.3.6c0 .8-.1 1.4-.4 1.8-.4.4-.7.7-.7.9-.1.3-.3.6-.5 1l-.5.4c-.2.1-.3.4-.5.8l-1.8 1c-.6.2-1.2.3-1.9.4l-.8-.4h-.6l-.6-.4h-.6l-2-1-4.4-4-1.1-1.7-.9-.8c-.1-.3-.4-.7-.9-1.2-.3-.2-.7-.7-1.1-1.2s-.9-1-1.5-1.2l-1.1-2.1c0-.2.1-.7.4-1.7l1.1.7.6.6c.2.2.7.6 1.7 1.1h.7l.3.3c.1 0 .3-.1.5-.1s.4 0 .6.2c.4-.3.9-.5 1.5-.7.6-.2 1.1-.3 1.5-.5l.3-.5h1.2c0-.2.1-.3.3-.4.2-.1.3-.1.3-.2h.2c.6 0 .9-.5 1.1-1.4.6-.3.9-.5 1-.6l.3-.4c.1-.1.4-.5.7-1.2h.1c.4 0 .7-.7 1.1-2.1h.3l.1-.4-.1-.9.1-.9c0-.4-.5-.9-1.6-1.4-.2-.3-.4-.5-.7-.5h-.2l-.3-.3c-.8 0-1.6-.1-2.4-.2-.8-.1-1.3-.2-1.5-.2-.6 0-1.4.3-2.2.8-.5 0-.9.1-1.4.2l.1.1c-.2 0-.4.1-.6.2l-.6.3c-.2.1-.4.2-.6.4-.2.2-.5.3-.7.3l-.7.3-1.9 1.6-1.9 2.1v.4l-.9 1.8-.4 1.2c-.6 1-.9 1.7-.9 2.3 0 .2.1.5.2.7 0 .3-.1.5-.3.6-.2.4-.4.7-.4 1.2l.1.5c0 .3 0 .6-.2.8-.3.4-.5.7-.6.9l.3 1-.2 1.2.1.8c-.3.5-.4 1.1-.4 1.7v.3c.1.2.1.3.1.4 0 .4-.3.7-1 .9-.3-.1-.6-.4-.7-1l-.2-.7.2-.9-.2-2.1.2-.5v-3.4c0-1 0-1.8.1-2.6.1-.7.1-1.1.1-1.1v-.9l.1-.5v-1.5l.2-.6-.2-.8.1-1.9v-2.3l-.2-.8.3-.5-.1-.6-.2-3.1-.4-1.8v-.4l.3-2-.2-.9-.1-1.4c-.1-.5-.1-.8-.1-1 0-.7.4-1.1 1.3-1.1l.2.4.3-.2-.1.9.3 1.6-.4 1.6.1 2.1.3.9-.2.9.1 1.5-.2 1.2.3 1.1-.2.4.3.8-.1 1.4-.2 3.9c.1.4.1.7.1.8l-.1.8.1 1c0 .4-.1.7-.2 1 .3.3.5.4.8.5l.6-1.4-.1-.3c0-.2.3-1.1 1-2.7s1.4-2.9 2.3-3.8c.3-.1.4-.1.4-.3 0-.1 0-.2-.1-.2.9-.5 1.4-.9 1.5-1 .1-.2.3-.3.4-.4.1-.1.3-.2.5-.3.2-.1.3-.2.5-.2.1 0 .3-.1.4-.2.1-.1.3-.2.5-.4.2-.1.6-.3 1.1-.5.3-.4 1.1-.7 2.2-.9l2.1-.3 3.9.2.6.3c.2.1.5.2.9.3 1.4 1.3 2.1 1.9 2.2 1.9 0-.1-.1-.2-.2-.3l.8 1.8-.1.4c.3.3.4.6.4.9 0 .3-.2.7-.6 1.2v.5l-.6 1.9-.8 1.2-.4.1c0 .2-.2.4-.4.7-.3.3-.4.5-.4.7-.4 0-.8.2-1.1.6-.3.1-.5.3-.6.6-.5.1-.9.4-1.3.8.1 0 .1 0 .2-.1h.1c0 .1-1.7.8-5.1 1.9-.4-.2-.6-.3-.8-.3-.3 0-.4.2-.4.6v.1l-.1.3.4.5.2.8c.1.4.4.7.9.9l1 1.9 1.4.9.1.3.6.3.2.6.3-.1 1.7 1.6 2 .8 1.3.4 1-.1.5-.2c.6-.1 1.1-.3 1.7-.7.5-.3.8-.5.9-.6l1-1.9.4-.5c.1-.2.3-.5.5-1.1.2-.1.4-.1.4-.1.2.1.4.2.5.5z" class="shape1"/>
    <path id="XMLID_252_" d="M721.2 293c.3.4.5.6.5.8 0 .1-.1.5-.3 1-.3.5-.4 1-.5 1.6l-.4.1-.4 1.2-.6.2-1.3 1.2-.2.6h-.5l-.4.6-.8.1-.1.3h-.4c-.4.1-.7.3-.9.7l-.4-.2c-.3.2-.6.4-.9.4-.4.1-.7 0-1-.1-.2.1-.4.1-.7.2l-.4-.2c-1 .1-1.7-.1-2.1-.5l-.1-.7-1-.3-.3-.5c-.1-.2-.3-.4-.7-.6l-.1-.4-1-2.5-.2-1.8V292l.1-1-.2-.7c.2-.2.3-.4.3-.7s.1-.5.2-.9c-.1-.3-.3-.7-.4-1.3l.4-.5-.6-.5c.2-.4.3-.7.2-.8l-.5-1.6c-.1-.4-.1-.8 0-1.2.3.3.5.4.8.4.1 0 .5-.1 1-.4-.1-.1-.1-.2-.1-.4s.1-.5.3-.7c.1-.9.4-1.8.8-2.7.3-.3.4-.7.3-1.2h.3l.2-.6.3-.2c0-.2.2-.5.4-.9.4-.2.8-.7 1.3-1.5h.5c.1 0 .2-.2.3-.7.6-.3.9-.5.9-.5.2 0 .3.1.5.2l.5-.2.3.2.3-.1c.3.6.7.8 1.2.7h.2c.1.2.2.4.4.5l-.2.1c.7.2 1.1.8 1.3 1.9l-.1.6.4 1.5-.2.3-.3 1.7-.9 1.5.1.8c-1.1 1.3-2.1 2.2-2.8 2.7 0 .2-.1.3-.3.4h-.4l-1.1 1-.7.1-1 .6-.5-.2c-.1-.1-.5-.1-1.1 0-.5.6-.6 1.3-.5 2.1l-.3.5v1.4l-.3.2.6 1.9-.2.3.2.6.1.8c0 .1.1.5.3 1 .2.5.4.8.6.9 0 .3.2.5.7.8.5.3 1 .5 1.5.5l.1.3h1.4l2-.2 1.3-.4c.5-.5.8-.8 1.1-.9l.3-.7.5-.1v-.3c.7-.4 1.1-.6 1.2-.8.1-.1.1-.2.1-.3.1-.2.2-.4.4-.4l.1-.4c.8-.3 1.2-.9 1.2-1.8 0 .4.2.3.4.3zm-6.4-11.7c.1 0 .3-.3.6-.8l.1-.7c.3-.8.5-1.3.5-1.5v-.8c0-.3-.3-.8-.6-1.5l-1.1-.2c-.3.1-.5.2-.5.2l-.3-.1c-.3 0-.4.2-.5.6-.3.1-.8.3-1.4.6l-.1.4h-.2c-.1 0-.1 0-.1.1s-.1.1-.1.1l-.1.1c0 .1 0 .1-.1.2v.5c0 .1-.1.3-.3.5l-.3.5-.5 1.6-.3.4c-.1.1-.2.4-.2.7s-.4 1.3-1 2.8l.4.2.3.4.9.1c.5-.4 1-.8 1.5-1l.1-.3c.2 0 .4.1.4 0 .2 0 .3-.2.5-.4l.6-.2.3-.7.4-.1.2-.6c.5-.1.9-.4 1.2-.9l-.3-.2z" class="shape1"/>
    <path id="XMLID_255_" d="M741.4 270.4v.7l-1.5.6-.8 1-.6.3-.7.8-.7.6c-.3.5-.6.8-.8 1l.1.3-.7.6-.3 1-.6.2v.9l-.5.6c-.2.2-.3.5-.4.7l-.2 1.1c-.3.3-.4.9-.3 1.6h-.3v.4l-.3.4-.1 1c-.2.6-.3 1.1-.2 1.4l-.4.3.3 1.1c-.1.1-.1.4-.1.6l.2.2-.5.4.3.4c0 .4 0 1.1-.3 2.1l.4.6-.3 1c.2.3.3.6.3.8l.1.9.5.9s.1.1.3.2l.5.3c-.1.5-.2.9-.4 1.1l-.8-.1.2.4-1.2.1-.2-.7-.3-.4-.1-.9-.3-.3-.4-1.8-.5-1.2c-.3 0-.4-.1-.4-.2s0-.4.2-.7l-.2-.8c-.1-.4-.2-.7-.3-.9l.1-.3-.5-.9-.1-.8-.3-.4-.3-1.5-.4-.3v-.5l-.6-1-.1-.9c-.1-.2-.2-.5-.4-.9l.1-.3-.8-1.7-.5-.1.1-1c-.5-.4-.9-.9-1-1.6l-.2-.7c-.2-.1-.4-.3-.4-.4.1-.4.5-.8 1.1-1.2h.4c.2.4.5.8.9 1.1l.3 1.3 1.7 3.9c.1.3 0 .5-.1.8l.6 1 .1.8.4.8.1.7.6.7-.2.2.5 1.2h.4l-.1-1.1c0-.1.1-.5.4-1.1.3-.5.4-1 .3-1.5l-.1-.3.3-.3c.1 0 .1-.1.1-.2s0-.2.1-.2h.2v-1.1l.6-.8v-.3l.4-.1-.3-.5.7-.6-.1-.7.7-.3c.3-.4.5-.8.5-1.2l.5-.2c0-.2.3-.6.7-1.2.1 0 .2-.1.2-.2l.7-.7.1-.4.4-.4c.7-.9 1.2-1.4 1.6-1.5l.2-.1c.3-.1.5-.2.7-.5h.5c.2-.2.4-.4.5-.4.6-.8.9-.8 1-.7z" class="shape1"/>
    <path id="XMLID_257_" d="M766.7 278.2l-.2.5v1.8l-.5.8.2.3-.7.3-.3 1-.9.4-.4.5c-.2.1-.3.2-.4.5-.3 0-.5 0-.7.1-.2.1-.4.2-.6.4l.1.3-1 .3-.7.4-.7.2v.2h-.3l-.4.3-.3.1c-.2.1-.5.2-.7.4l-.6.1-.3.4-.3-.1-.3.4c-.5-.1-.9 0-1.2.1-.1 0-.2.2-.4.3-.3 0-.6 0-1 .1l-1.2.4c-.3.1-.6.3-.8.4l-.2-.2-.3.5c-.2-.1-.3-.1-.5 0l-.3-.2c-1.1.4-1.9-.1-2.5-1.6l1-.6-.2-.3.1-.5.3.2.3-.1.1.2.4-.4c.3-.1.5 0 .6.2 0 .1.1.3 0 .5l.5-.1.3.8 1.4-.4.7.2v-.3l6.3-3.2 2-1.4v-.3l.5-.3.1-.3c.7-.5 1.3-1 1.7-1.7l.2.1v-.3l.2-.5v-.2l-.4-.2-.1-.5-.8-.2-.3-.4c-.3 0-.5 0-.6-.1l-.2.2-.7-.3-.2.1-.3-.2-.5.2c-.2-.2-.5-.3-.7-.2l-.3.2c-.6.2-1.1.3-1.7.1l-.5.2-.8-.1-.2.3-.3-.2-.3.1-.8-.2h-1.8l-.8-.3-1.8.4-.1-.1-1.9-.4-1.3-1.4-.9-.6-1.2-2.3v-.3c-.3-.7-.4-1.3-.2-2 .5-.6.6-1.1.5-1.5l.4-.1c0-.5.1-1 .4-1.6l.4-.8 2.4-2.5 1.4-.9 1.3-1.1 2.3-.8.2.3.1-.1c.3-.1.5-.1.8 0l.2.4.8.2.3 1.4c.1.3 0 .5-.3.6-.1.1-.5-.2-1.2-.8l-1.4.5-.3.2c-.7-.2-1.1-.2-1.2-.2-.1 0-.1.1-.1.2l-.3.5c-.6.2-.9.6-1.2 1-.6.4-.9.8-1 1.2l-.6.2-.3.5-.8.8-.1.3-.2.3-.4 1-.2.9c-.3.5-.5.8-.5.9l.4 2.3h.3l.1.1c.2.6.7.9 1.4 1.1l.1.2 1.7.2.3-.1 1.1.4 1-.4.8.3 1.2-.4.5.1 2.5-.3c.1.2.3.2.5.1.4-.2.8-.2 1.3-.2.4 0 .8 0 1.1-.1l.2.2.5.1 1-.4 1.1.2c.3.3.6.5 1.1.6v.2l.4.2.5-.1v.5c.6 1.3.9 1.5 1.1 1.7z" class="shape1"/>
  </g>
  <g id="Layer_3">
    <path id="XMLID_191_" d="M770.9 272s25.7-26 34.5-68c0 0 20.8-43.7 2.5-105.7 0 0-17.7-66.3-79.7-88.3 0 0-47.3-21-106-2 0 0-73.7 15.7-215.3 127.5 0 0-107.7 103.2-231.7 129.2 0 0-80.3 14.7-130-36 0 0-80.7-92.7 10.7-175.3 0 0 68.3-55.8 172.7-10 0 0 88.7 34.7 162.7 96.7 0 0 95.3 74.3 102.3 75.3l6.3-6.3s-91.7-72-100.3-78.3c0 0-130-95.7-164.2-105.2 0 0-119.5-64.8-198.2 23.2 0 0-70.7 76.7-17.3 173.3 0 0 43.3 77.3 134 70 0 0 64.4-.1 166-73 0 0 67.1-47.9 86-63.5 0 0 102-93.5 212-124.5 0 0 108.5-34.5 171.5 52.5 0 0 33.8 48.5 3.5 135.5 0 0-8 26.5-26.8 50.8l4.8 2.1z" class="shape2"/>
  </g>
</svg>
