<svg xmlns="http://www.w3.org/2000/svg" viewBox="0 0 496 496"><path fill="#607D8B" d="M344 160h32v24h-32zm0 40h32v24h-32zM8 88l128 112L264 88"/><path fill="#444" d="M464 248V40c0-22.056-17.944-40-40-40H232c-22.056 0-40 17.944-40 40v40H0v192h192v120c0 22.056 17.944 40 40 40h52.688l3.312 3.312V496h176v-61.6c20.944-32.256 32-69.568 32-108.088V280c0-17.648-14.352-32-32-32zM232 16h192c13.232 0 24 10.768 24 24v8H208v-8c0-13.232 10.768-24 24-24zM102.44 181.264L16 247.752v-142.12l86.44 75.632zm12.272 10.744L136 210.632l21.288-18.624L240.472 256H31.528l83.184-63.992zM256 247.752l-86.44-66.488L256 105.632v142.12zm-120-58.384L29.288 96h213.416L136 189.368zM236.84 272H272V80h-64V64h240v188.448c-.632.368-1.312.64-1.912 1.048C441.712 241.024 429.944 232 416 232c-6.632 0-12.8 2.032-17.912 5.504C393.712 225.024 381.952 216 368 216c-5.856 0-11.272 1.696-16 4.448V184c0-17.648-14.352-32-32-32s-32 14.352-32 32v133.576c0 2.152-3.248 3.128-4.44 1.344l-22.72-34.08a28.79 28.79 0 0 0-24-12.84c-15.904 0-28.84 12.936-28.84 28.84 0 13.768 3.256 27.552 9.408 39.864a335.923 335.923 0 0 0 5.928 11.288H208V272h28.84zM208 392v-24h24.776c10.656 17.064 22.808 33.12 36.416 48H232c-13.232 0-24-10.768-24-24zm272-65.688c0 36.16-10.6 71.168-30.656 101.248L448 429.576V480H304v-51.312L290.704 415.4a314.447 314.447 0 0 1-58.984-81.84 73.58 73.58 0 0 1-7.72-32.72c0-7.08 5.76-12.84 12.84-12.84a12.83 12.83 0 0 1 10.688 5.72l22.72 34.08a18.39 18.39 0 0 0 15.328 8.2c10.16 0 18.424-8.264 18.424-18.424V184c0-8.824 7.176-16 16-16s16 7.176 16 16v128h16v-64c0-8.824 7.176-16 16-16s16 7.176 16 16v64h16v-48c0-8.824 7.176-16 16-16s16 7.176 16 16v48h16v-32c0-8.824 7.176-16 16-16s16 7.176 16 16v46.312z"/><path fill="#607D8B" d="M288 80h32v24h-32zm56 0h32v24h-32zm56 0h32v24h-32zm-112 40h32v24h-32zm56 0h32v24h-32zm56 0h32v24h-32zm0 40h32v24h-32zm0 40h32v24h-32z"/></svg>