<svg xmlns="http://www.w3.org/2000/svg" viewBox="0 0 295.24 295.24">
  <path fill="#607D8B" d="M261.9 97.62h-80.95c-18.37 0-33.33-14.96-33.33-33.33s14.96-33.4 33.33-33.4c1.83 0 3.64.1 5.43.4 6.64-17.3 23.38-29 42.2-29 19 0 36.1 12.1 42.52 29.8 14.14 4.05 24.14 17.1 24.14 32.04 0 18.36-14.96 33.32-33.34 33.32z"/>
  <path fill="#444" d="M288.5 157.97c-16.67-8.33-35.3-12.73-53.93-12.73h-60.05l-53.96-38.1H74.22l38.1 38.1h-39.1l-42.85-38.1H2.2l18.86 42.46-6.77 1.13v16l3 2.18c21.9 15.7 47.8 24 74.7 24h10.7l-34.8 34.8 4.8 3.2c1.5 1.1 2.94 2.2 4.24 3.5l1.4 1.4h27.8L167 192.9h66.37c16.43 0 32.4-3.28 47.5-9.75l6.97-2.98c4.5-1.93 7.4-6.34 7.4-11.23 0-4.65-2.6-8.84-6.75-10.92zm-191.3-41.3h20.34L158 145.24h-32.2l-28.6-28.57zm-80.35 0h9.9l32.16 28.57h-6.5c-3.4 0-6.8.28-10.1.84l-11.4 1.9-13.9-31.3zm267.24 54.7l-7 2.98c-13.9 5.96-28.6 8.98-43.8 8.98h-52.9l8-5.63-5.5-7.78-79.7 56.27H82.9l49-49.1-6.7-6.8-12.87 12.9H92.06c-24.57 0-48.14-7.47-68.25-21.5v-3.07l20-3.34c2.9-.48 5.8-.7 8.6-.7h182.2c17.2 0 34.3 4.03 49.7 11.7.9.46 1.5 1.4 1.5 2.4 0 1.1-.6 2.05-1.6 2.5z"/>
  <path fill="#607D8B" d="M85.7 292.86H28.58C12.8 292.86 0 280.04 0 264.3c0-14 10.3-25.85 23.9-28.1 6.7-11.95 19.46-19.53 33.24-19.53 18.1 0 33.6 12.8 37.26 30.25 9.05 3.53 15.12 12.22 15.12 22.13 0 13.13-10.68 23.8-23.8 23.8z"/>
  <path fill="#444" d="M161.9 245.24h95.25v9.52H161.9zm-19.04 0h9.52v9.52h-9.52zM42.86 35.7h76.2v9.53h-76.2zm-19.06 0h9.53v9.53H23.8zm0 23.82h71.44v9.52H23.8zm-19.04 0h9.52v9.52H4.76z"/>
</svg>
