<svg xmlns="http://www.w3.org/2000/svg" viewBox="0 0 496 496">
  <circle cx="248" cy="248" r="128" fill="#607D8B"/>
  <g fill="#444">
    <path d="M248 72c-97.05 0-176 78.95-176 176s78.95 176 176 176 176-78.95 176-176S345.05 72 248 72zm0 336c-88.22 0-160-71.78-160-160S159.78 88 248 88s160 71.78 160 160-71.78 160-160 160z"/>
    <path d="M240 240H136v16h120V136h-16"/>
    <circle cx="248" cy="112" r="8"/>
    <circle cx="248" cy="384" r="8"/>
    <circle cx="384" cy="248" r="8"/>
    <circle cx="112" cy="248" r="8"/>
    <path d="M56.57 341.03l-9.25 23.13C26.82 328.9 16 289.06 16 248 16 120.08 120.08 16 248 16c52.9 0 104.68 18.32 145.8 51.58l10.06-12.44C359.9 19.58 304.56 0 248 0 111.25 0 0 111.25 0 248c0 44.23 11.78 87.12 34.02 125.05l-24.45-4.9-3.14 15.7 46.52 9.3 18.48-46.18-14.86-5.94z"/>
    <circle cx="72" cy="408" r="8"/>
    <path d="M461.98 122.95l24.45 4.9 3.15-15.7-46.52-9.3-18.48 46.17 14.85 5.94 9.25-23.13C469.18 167.1 480 206.93 480 248c0 127.92-104.08 232-232 232-52.9 0-104.68-18.32-145.8-51.58l-10.06 12.44C136.1 476.42 191.44 496 248 496c136.75 0 248-111.25 248-248 0-44.23-11.78-87.12-34.02-125.05z"/>
    <circle cx="424" cy="88" r="8"/>
  </g>
</svg>
