<svg xmlns="http://www.w3.org/2000/svg" viewBox="0 0 295.24 295.24">
  <path fill="#333" d="M280.95 78.57h-71.43v-23.8c0-5.37-3-10-7.38-12.44 1.65-2.57 2.62-5.6 2.62-8.87 0-6.3-3.5-11.97-9.14-14.78l-9.9-4.96V2.38h-9.53V19.6l15.1 7.6c2.4 1.2 3.8 3.6 3.8 6.27 0 3.07-2 5.66-4.8 6.6v-9.12h-9.5v23.8c0 2.64-2.15 4.77-4.78 4.77s-4.77-2.13-4.77-4.76h-9.54c0 2.63-2.13 4.76-4.76 4.76s-4.76-2.13-4.76-4.76h-9.54c0 2.63-2.13 4.76-4.76 4.76s-4.76-2.13-4.76-4.76h-9.54c0 2.63-2.13 4.76-4.76 4.76s-4.75-2.13-4.75-4.76V31.72l4.8-14.28V2.38h-9.5V15.9l-4.8 14.28v10.3H100c-7.88 0-14.3 6.4-14.3 14.28v23.8H14.3C6.4 78.56 0 85 0 92.86V264.3c0 6.2 4 11.42 9.52 13.4v5.63c0 5.26 4.27 9.53 9.53 9.53H38.1c5.25 0 9.52-4.27 9.52-9.53v-4.76h200v4.76c0 5.26 4.27 9.53 9.52 9.53h19.05c5.2 0 9.5-4.27 9.5-9.53v-5.63c5.5-1.97 9.5-7.2 9.5-13.4V92.85c0-7.88-6.4-14.3-14.3-14.3zm-90.47-23.8V50h4.76c2.63 0 4.76 2.14 4.76 4.76v4.76h-10.4c.53-1.5.88-3.08.88-4.76zM100 50h4.76v4.76c0 1.68.34 3.27.88 4.76h-10.4v-4.76c0-2.62 2.13-4.76 4.76-4.76zm-4.76 19.05h23.8c3.66 0 7-1.38 9.53-3.65 2.53 2.27 5.87 3.65 9.53 3.65s7-1.38 9.52-3.65c2.53 2.27 5.87 3.65 9.52 3.65s7-1.38 9.53-3.65c2.53 2.27 5.87 3.65 9.52 3.65H200v9.52H95.24v-9.52zM38.1 283.33H19.04v-4.76H38.1v4.76zm238.1 0h-19.06v-4.76h19.05v4.76zm9.5-19.04c0 2.6-2.12 4.7-4.75 4.7H14.3c-2.64 0-4.78-2.2-4.78-4.8V92.8c0-2.6 2.14-4.73 4.77-4.73h266.6c2.6 0 4.7 2.1 4.7 4.7v171.5z"/>
  <path fill="#333" d="M132.55 100.57l-53.4 20.02 60.07 33.3-6.67-53.4zm-30.76 21.7l22.8-8.55 2.8 22.8-25.7-14.25zm44 111.73l19.1 31.97 41.6-23.77-19.2-31.98L145.8 234zm22.5 19.08l-9.4-15.65L184 223.1l9.4 15.68-25.07 14.33zm-46.9-79.28c-11.8 0-21.5 9.62-21.5 21.44s9.6 21.43 21.4 21.43 21.4-9.62 21.4-21.43-9.64-21.43-21.45-21.43zm0 33.34c-6.6 0-11.9-5.33-11.9-11.9s5.3-11.9 11.9-11.9 11.9 5.33 11.9 11.9c0 6.56-5.4 11.9-11.9 11.9zm61.9-71.44c11.8 0 21.4-9.6 21.4-21.4s-9.6-21.44-21.5-21.44c-11.8 0-21.4 9.6-21.4 21.42s9.6 21.43 21.4 21.43zm0-33.32c6.5 0 11.9 5.34 11.9 11.9s-5.4 11.9-11.9 11.9-11.9-5.33-11.9-11.9 5.3-11.9 11.9-11.9z"/>
  <path fill="#607D8B" d="M76.2 278.57H47.6v-200h28.6v200zm171.42 0h-28.57v-200h28.57v200z"/>
  <path fill="#333" d="M80.95 169.05h-38.1c-5.25 0-9.52 4.27-9.52 9.52v28.57c0 5.26 4.27 9.53 9.53 9.53h38.1c5.24 0 9.52-4.27 9.52-9.53v-28.57c0-5.25-4.28-9.52-9.53-9.52zm-38.1 38.1v-28.58h38.1v28.57h-38.1zm209.53-38.1h-38.1c-5.25 0-9.52 4.27-9.52 9.52v28.57c0 5.26 4.27 9.53 9.53 9.53h38c5.2 0 9.5-4.27 9.5-9.53v-28.57c0-5.25-4.3-9.52-9.6-9.52zm-38.1 38.1v-28.58h38.1v28.57h-38.1z"/>
</svg>
